<svg xmlns="http://www.w3.org/2000/svg" xmlns:xlink="http://www.w3.org/1999/xlink" width="500" zoomAndPan="magnify" viewBox="0 0 375 374.999991" height="500" preserveAspectRatio="xMidYMid meet" version="1.0"><defs><g><g id="id1"/><g id="id2"/></g><clipPath id="id3"><path d="M 112 72.625 L 263 72.625 L 263 187 L 112 187 Z M 112 72.625 " clip-rule="nonzero"/></clipPath><clipPath id="id4"><path d="M 107.3125 75 L 267.8125 75 L 267.8125 206.875 L 107.3125 206.875 Z M 107.3125 75 " clip-rule="nonzero"/></clipPath></defs><g clip-path="url(#id3)"><path fill="rgb(0%, 63.919067%, 84.709167%)" d="M 194.984375 186.722656 C 218.921875 176.625 241.152344 163.179688 256.542969 136.308594 C 262.675781 125.597656 265.480469 113.308594 256.199219 103.117188 C 251.175781 97.597656 244.417969 93.960938 237.097656 91.75 L 233.738281 100.988281 C 240.101562 103.640625 245.609375 107.796875 248.925781 114.371094 C 262.964844 142.210938 214.054688 176.175781 194.984375 186.726562 Z M 179.871094 184.566406 C 172.726562 154.976562 156.894531 129.734375 128.359375 110.839844 C 123.21875 115.671875 118.078125 120.503906 112.9375 125.335938 C 146.171875 132.40625 167.199219 153.640625 179.871094 184.566406 Z M 178.285156 129.679688 L 203.992188 136.363281 L 238.339844 72.625 L 209.964844 150.648438 Z M 178.285156 129.679688 " fill-opacity="1" fill-rule="evenodd"/></g><g clip-path="url(#id4)"><path fill="rgb(0%, 18.03894%, 26.669312%)" d="M 126.714844 154.167969 C 122.160156 163.3125 121.039062 175.078125 127.980469 183.3125 C 134.089844 190.554688 145.101562 193.746094 155.753906 194.617188 C 164.105469 195.300781 172.539062 194.832031 180.855469 193.359375 C 175.535156 154.035156 159.160156 121.066406 120.933594 100.660156 C 144.582031 92.230469 168.230469 83.796875 191.878906 75.363281 C 202.082031 83.613281 208.867188 93.070312 213.21875 103.300781 L 209.203125 110.75 C 205.347656 102.246094 200.046875 94.183594 192.804688 87.085938 C 178.820312 92.535156 164.839844 97.988281 150.855469 103.4375 C 175.039062 129.125 183.390625 159.726562 183.71875 192.816406 C 220.738281 185.21875 254.894531 157.796875 267.453125 122.5625 C 259.453125 175.253906 194.539062 211.378906 144.253906 206.417969 C 131.542969 205.167969 119.523438 200.433594 113.25 189.921875 C 106.136719 178.003906 111.453125 162.753906 118.394531 151.582031 C 121.265625 152.296875 124.039062 153.160156 126.714844 154.167969 Z M 173.988281 189.191406 C 165.457031 161.976562 147.789062 142.425781 119.085938 132.125 C 115.28125 136.03125 111.472656 139.9375 107.671875 143.84375 C 133.574219 146.601562 156.320312 159.621094 173.988281 189.191406 Z M 219.792969 132.488281 C 220.460938 142.152344 219.996094 152.097656 219.023438 162.046875 C 218.921875 154.789062 218.457031 147.101562 217.304688 139.328125 Z M 219.792969 132.488281 " fill-opacity="1" fill-rule="evenodd"/></g><g fill="rgb(0%, 18.03894%, 26.669312%)" fill-opacity="1"><g transform="translate(83.282256, 249.766773)"><g><path d="M 19.265625 -7.46875 C 19.265625 -5.039062 18.390625 -3.125 16.640625 -1.71875 C 14.890625 -0.320312 12.457031 0.375 9.34375 0.375 C 6.476562 0.375 3.941406 -0.164062 1.734375 -1.25 L 1.734375 -6.546875 C 3.546875 -5.734375 5.078125 -5.160156 6.328125 -4.828125 C 7.585938 -4.503906 8.738281 -4.34375 9.78125 -4.34375 C 11.03125 -4.34375 11.988281 -4.582031 12.65625 -5.0625 C 13.332031 -5.539062 13.671875 -6.25 13.671875 -7.1875 C 13.671875 -7.71875 13.519531 -8.1875 13.21875 -8.59375 C 12.925781 -9.007812 12.492188 -9.40625 11.921875 -9.78125 C 11.359375 -10.164062 10.195312 -10.773438 8.4375 -11.609375 C 6.800781 -12.378906 5.570312 -13.117188 4.75 -13.828125 C 3.925781 -14.546875 3.269531 -15.375 2.78125 -16.3125 C 2.289062 -17.257812 2.046875 -18.363281 2.046875 -19.625 C 2.046875 -22.007812 2.847656 -23.878906 4.453125 -25.234375 C 6.066406 -26.597656 8.296875 -27.28125 11.140625 -27.28125 C 12.546875 -27.28125 13.878906 -27.113281 15.140625 -26.78125 C 16.410156 -26.445312 17.738281 -25.984375 19.125 -25.390625 L 17.296875 -20.953125 C 15.859375 -21.535156 14.671875 -21.941406 13.734375 -22.171875 C 12.796875 -22.410156 11.875 -22.53125 10.96875 -22.53125 C 9.882812 -22.53125 9.050781 -22.28125 8.46875 -21.78125 C 7.894531 -21.28125 7.609375 -20.625 7.609375 -19.8125 C 7.609375 -19.3125 7.722656 -18.875 7.953125 -18.5 C 8.191406 -18.125 8.566406 -17.757812 9.078125 -17.40625 C 9.585938 -17.0625 10.789062 -16.4375 12.6875 -15.53125 C 15.207031 -14.320312 16.929688 -13.113281 17.859375 -11.90625 C 18.796875 -10.695312 19.265625 -9.21875 19.265625 -7.46875 Z M 19.265625 -7.46875 "/></g></g></g><g fill="rgb(0%, 18.03894%, 26.669312%)" fill-opacity="1"><g transform="translate(105.006182, 249.766773)"><g><path d="M 3.390625 0 L 3.390625 -26.890625 L 9.09375 -26.890625 L 9.09375 0 Z M 3.390625 0 "/></g></g></g><g fill="rgb(0%, 18.03894%, 26.669312%)" fill-opacity="1"><g transform="translate(118.45438, 249.766773)"><g><path d="M 14.765625 0 L 8.296875 -21.09375 L 8.125 -21.09375 C 8.363281 -16.800781 8.484375 -13.941406 8.484375 -12.515625 L 8.484375 0 L 3.390625 0 L 3.390625 -26.890625 L 11.140625 -26.890625 L 17.515625 -6.328125 L 17.625 -6.328125 L 24.375 -26.890625 L 32.140625 -26.890625 L 32.140625 0 L 26.8125 0 L 26.8125 -12.734375 C 26.8125 -13.328125 26.820312 -14.015625 26.84375 -14.796875 C 26.863281 -15.585938 26.945312 -17.675781 27.09375 -21.0625 L 26.921875 -21.0625 L 20 0 Z M 14.765625 0 "/></g></g></g><g fill="rgb(0%, 18.03894%, 26.669312%)" fill-opacity="1"><g transform="translate(154.945899, 249.766773)"><g><path d="M 1.125 -7.796875 L 1.125 -12.390625 L 11 -12.390625 L 11 -7.796875 Z M 1.125 -7.796875 "/></g></g></g><g fill="rgb(0%, 63.919067%, 84.709167%)" fill-opacity="1"><g transform="translate(168.040774, 249.766773)"><g><path d="M 14.8125 -22.53125 C 12.664062 -22.53125 11.003906 -21.722656 9.828125 -20.109375 C 8.648438 -18.503906 8.0625 -16.257812 8.0625 -13.375 C 8.0625 -7.375 10.3125 -4.375 14.8125 -4.375 C 16.695312 -4.375 18.984375 -4.847656 21.671875 -5.796875 L 21.671875 -1.015625 C 19.460938 -0.0859375 17 0.375 14.28125 0.375 C 10.363281 0.375 7.367188 -0.8125 5.296875 -3.1875 C 3.222656 -5.5625 2.1875 -8.96875 2.1875 -13.40625 C 2.1875 -16.207031 2.695312 -18.65625 3.71875 -20.75 C 4.738281 -22.851562 6.203125 -24.46875 8.109375 -25.59375 C 10.015625 -26.71875 12.25 -27.28125 14.8125 -27.28125 C 17.414062 -27.28125 20.039062 -26.648438 22.6875 -25.390625 L 20.84375 -20.75 C 19.832031 -21.226562 18.816406 -21.644531 17.796875 -22 C 16.785156 -22.351562 15.789062 -22.53125 14.8125 -22.53125 Z M 14.8125 -22.53125 "/></g></g></g><g fill="rgb(0%, 63.919067%, 84.709167%)" fill-opacity="1"><g transform="translate(193.019831, 249.766773)"><g><path d="M 19.84375 0 L 17.890625 -6.40625 L 8.09375 -6.40625 L 6.140625 0 L 0 0 L 9.484375 -27 L 16.46875 -27 L 25.984375 0 Z M 16.53125 -11.1875 C 14.726562 -16.988281 13.710938 -20.269531 13.484375 -21.03125 C 13.265625 -21.789062 13.101562 -22.390625 13 -22.828125 C 12.59375 -21.253906 11.4375 -17.375 9.53125 -11.1875 Z M 16.53125 -11.1875 "/></g></g></g><g fill="rgb(0%, 63.919067%, 84.709167%)" fill-opacity="1"><g transform="translate(219.985062, 249.766773)"><g><path d="M 25.015625 0 L 18.546875 0 L 11.5 -11.328125 L 9.09375 -9.609375 L 9.09375 0 L 3.390625 0 L 3.390625 -26.890625 L 9.09375 -26.890625 L 9.09375 -14.59375 L 11.328125 -17.75 L 18.609375 -26.890625 L 24.9375 -26.890625 L 15.5625 -14.984375 Z M 25.015625 0 "/></g></g></g><g fill="rgb(0%, 63.919067%, 84.709167%)" fill-opacity="1"><g transform="translate(245.97559, 249.766773)"><g><path d="M 18.875 0 L 3.390625 0 L 3.390625 -26.890625 L 18.875 -26.890625 L 18.875 -22.21875 L 9.09375 -22.21875 L 9.09375 -16.3125 L 18.1875 -16.3125 L 18.1875 -11.640625 L 9.09375 -11.640625 L 9.09375 -4.703125 L 18.875 -4.703125 Z M 18.875 0 "/></g></g></g><g fill="rgb(0%, 63.919067%, 84.709167%)" fill-opacity="1"><g transform="translate(268.048944, 249.766773)"><g><path d="M 9.09375 -14.234375 L 10.96875 -14.234375 C 12.71875 -14.234375 14.023438 -14.578125 14.890625 -15.265625 C 15.765625 -15.960938 16.203125 -16.972656 16.203125 -18.296875 C 16.203125 -19.640625 15.835938 -20.628906 15.109375 -21.265625 C 14.378906 -21.898438 13.238281 -22.21875 11.6875 -22.21875 L 9.09375 -22.21875 Z M 21.96875 -18.5 C 21.96875 -15.601562 21.0625 -13.390625 19.25 -11.859375 C 17.4375 -10.328125 14.863281 -9.5625 11.53125 -9.5625 L 9.09375 -9.5625 L 9.09375 0 L 3.390625 0 L 3.390625 -26.890625 L 11.96875 -26.890625 C 15.238281 -26.890625 17.722656 -26.1875 19.421875 -24.78125 C 21.117188 -23.382812 21.96875 -21.289062 21.96875 -18.5 Z M 21.96875 -18.5 "/></g></g></g><g fill="rgb(0%, 18.03894%, 26.669312%)" fill-opacity="1"><g transform="translate(58.898233, 270.93042)"><g><path d="M 0 -7.921875 L 2.359375 -7.921875 L 3.859375 -3.46875 C 3.984375 -3.070312 4.070312 -2.613281 4.125 -2.09375 L 4.15625 -2.09375 C 4.207031 -2.570312 4.3125 -3.03125 4.46875 -3.46875 L 5.9375 -7.921875 L 8.25 -7.921875 L 4.90625 1.015625 C 4.59375 1.835938 4.148438 2.453125 3.578125 2.859375 C 3.015625 3.273438 2.351562 3.484375 1.59375 3.484375 C 1.21875 3.484375 0.851562 3.441406 0.5 3.359375 L 0.5 1.65625 C 0.757812 1.707031 1.039062 1.734375 1.34375 1.734375 C 1.726562 1.734375 2.0625 1.617188 2.34375 1.390625 C 2.632812 1.160156 2.859375 0.804688 3.015625 0.328125 L 3.140625 -0.0625 Z M 0 -7.921875 "/></g></g></g><g fill="rgb(0%, 18.03894%, 26.669312%)" fill-opacity="1"><g transform="translate(71.85384, 270.93042)"><g><path d="M 2.859375 -3.96875 C 2.859375 -3.1875 2.984375 -2.59375 3.234375 -2.1875 C 3.492188 -1.789062 3.914062 -1.59375 4.5 -1.59375 C 5.070312 -1.59375 5.484375 -1.789062 5.734375 -2.1875 C 5.992188 -2.59375 6.125 -3.1875 6.125 -3.96875 C 6.125 -4.75 5.992188 -5.335938 5.734375 -5.734375 C 5.484375 -6.128906 5.066406 -6.328125 4.484375 -6.328125 C 3.910156 -6.328125 3.492188 -6.128906 3.234375 -5.734375 C 2.984375 -5.347656 2.859375 -4.757812 2.859375 -3.96875 Z M 8.328125 -3.96875 C 8.328125 -2.6875 7.984375 -1.679688 7.296875 -0.953125 C 6.617188 -0.222656 5.675781 0.140625 4.46875 0.140625 C 3.707031 0.140625 3.035156 -0.0234375 2.453125 -0.359375 C 1.878906 -0.691406 1.4375 -1.164062 1.125 -1.78125 C 0.8125 -2.40625 0.65625 -3.132812 0.65625 -3.96875 C 0.65625 -5.257812 0.988281 -6.265625 1.65625 -6.984375 C 2.332031 -7.703125 3.285156 -8.0625 4.515625 -8.0625 C 5.273438 -8.0625 5.941406 -7.894531 6.515625 -7.5625 C 7.097656 -7.238281 7.546875 -6.765625 7.859375 -6.140625 C 8.171875 -5.523438 8.328125 -4.800781 8.328125 -3.96875 Z M 8.328125 -3.96875 "/></g></g></g><g fill="rgb(0%, 18.03894%, 26.669312%)" fill-opacity="1"><g transform="translate(85.538092, 270.93042)"><g><path d="M 6.734375 0 L 6.453125 -1.015625 L 6.34375 -1.015625 C 6.101562 -0.640625 5.769531 -0.351562 5.34375 -0.15625 C 4.925781 0.0390625 4.445312 0.140625 3.90625 0.140625 C 2.96875 0.140625 2.265625 -0.109375 1.796875 -0.609375 C 1.328125 -1.109375 1.09375 -1.820312 1.09375 -2.75 L 1.09375 -7.921875 L 3.25 -7.921875 L 3.25 -3.296875 C 3.25 -2.722656 3.347656 -2.289062 3.546875 -2 C 3.753906 -1.71875 4.082031 -1.578125 4.53125 -1.578125 C 5.132812 -1.578125 5.566406 -1.78125 5.828125 -2.1875 C 6.097656 -2.59375 6.234375 -3.257812 6.234375 -4.1875 L 6.234375 -7.921875 L 8.390625 -7.921875 L 8.390625 0 Z M 6.734375 0 "/></g></g></g><g fill="rgb(0%, 18.03894%, 26.669312%)" fill-opacity="1"><g transform="translate(99.77414, 270.93042)"><g><path d="M 5.546875 -8.0625 C 5.835938 -8.0625 6.082031 -8.039062 6.28125 -8 L 6.125 -5.96875 C 5.945312 -6.019531 5.734375 -6.046875 5.484375 -6.046875 C 4.796875 -6.046875 4.257812 -5.867188 3.875 -5.515625 C 3.488281 -5.160156 3.296875 -4.664062 3.296875 -4.03125 L 3.296875 0 L 1.140625 0 L 1.140625 -7.921875 L 2.765625 -7.921875 L 3.09375 -6.578125 L 3.1875 -6.578125 C 3.4375 -7.023438 3.769531 -7.382812 4.1875 -7.65625 C 4.601562 -7.925781 5.054688 -8.0625 5.546875 -8.0625 Z M 5.546875 -8.0625 "/></g></g></g><g fill="rgb(0%, 18.03894%, 26.669312%)" fill-opacity="1"><g transform="translate(111.06728, 270.93042)"><g/></g></g><g fill="rgb(0%, 18.03894%, 26.669312%)" fill-opacity="1"><g transform="translate(119.544852, 270.93042)"><g><path d="M 5.515625 -6.296875 L 3.640625 -6.296875 L 3.640625 0 L 1.484375 0 L 1.484375 -6.296875 L 0.296875 -6.296875 L 0.296875 -7.328125 L 1.484375 -7.921875 L 1.484375 -8.5 C 1.484375 -9.394531 1.703125 -10.050781 2.140625 -10.46875 C 2.585938 -10.882812 3.300781 -11.09375 4.28125 -11.09375 C 5.019531 -11.09375 5.679688 -10.984375 6.265625 -10.765625 L 5.71875 -9.171875 C 5.28125 -9.304688 4.878906 -9.375 4.515625 -9.375 C 4.203125 -9.375 3.976562 -9.285156 3.84375 -9.109375 C 3.707031 -8.929688 3.640625 -8.695312 3.640625 -8.40625 L 3.640625 -7.921875 L 5.515625 -7.921875 Z M 5.515625 -6.296875 "/></g></g></g><g fill="rgb(0%, 18.03894%, 26.669312%)" fill-opacity="1"><g transform="translate(129.868822, 270.93042)"><g><path d="M 1.046875 -9.96875 C 1.046875 -10.664062 1.4375 -11.015625 2.21875 -11.015625 C 3 -11.015625 3.390625 -10.664062 3.390625 -9.96875 C 3.390625 -9.625 3.289062 -9.359375 3.09375 -9.171875 C 2.894531 -8.992188 2.601562 -8.90625 2.21875 -8.90625 C 1.4375 -8.90625 1.046875 -9.257812 1.046875 -9.96875 Z M 3.296875 0 L 1.140625 0 L 1.140625 -7.921875 L 3.296875 -7.921875 Z M 3.296875 0 "/></g></g></g><g fill="rgb(0%, 18.03894%, 26.669312%)" fill-opacity="1"><g transform="translate(139.004312, 270.93042)"><g><path d="M 8.4375 0 L 6.28125 0 L 6.28125 -4.625 C 6.28125 -5.195312 6.175781 -5.625 5.96875 -5.90625 C 5.769531 -6.195312 5.445312 -6.34375 5 -6.34375 C 4.394531 -6.34375 3.957031 -6.140625 3.6875 -5.734375 C 3.425781 -5.328125 3.296875 -4.65625 3.296875 -3.71875 L 3.296875 0 L 1.140625 0 L 1.140625 -7.921875 L 2.78125 -7.921875 L 3.078125 -6.90625 L 3.1875 -6.90625 C 3.425781 -7.289062 3.757812 -7.578125 4.1875 -7.765625 C 4.613281 -7.960938 5.09375 -8.0625 5.625 -8.0625 C 6.550781 -8.0625 7.25 -7.8125 7.71875 -7.3125 C 8.195312 -6.820312 8.4375 -6.101562 8.4375 -5.15625 Z M 8.4375 0 "/></g></g></g><g fill="rgb(0%, 18.03894%, 26.669312%)" fill-opacity="1"><g transform="translate(153.240356, 270.93042)"><g><path d="M 6.15625 0 L 5.734375 -1.078125 L 5.6875 -1.078125 C 5.320312 -0.617188 4.945312 -0.300781 4.5625 -0.125 C 4.175781 0.0507812 3.675781 0.140625 3.0625 0.140625 C 2.300781 0.140625 1.703125 -0.0703125 1.265625 -0.5 C 0.828125 -0.9375 0.609375 -1.554688 0.609375 -2.359375 C 0.609375 -3.203125 0.898438 -3.820312 1.484375 -4.21875 C 2.078125 -4.625 2.96875 -4.847656 4.15625 -4.890625 L 5.515625 -4.921875 L 5.515625 -5.28125 C 5.515625 -6.082031 5.109375 -6.484375 4.296875 -6.484375 C 3.660156 -6.484375 2.914062 -6.289062 2.0625 -5.90625 L 1.34375 -7.359375 C 2.257812 -7.835938 3.269531 -8.078125 4.375 -8.078125 C 5.4375 -8.078125 6.25 -7.84375 6.8125 -7.375 C 7.382812 -6.914062 7.671875 -6.21875 7.671875 -5.28125 L 7.671875 0 Z M 5.515625 -3.671875 L 4.6875 -3.640625 C 4.0625 -3.617188 3.59375 -3.503906 3.28125 -3.296875 C 2.976562 -3.085938 2.828125 -2.769531 2.828125 -2.34375 C 2.828125 -1.738281 3.175781 -1.4375 3.875 -1.4375 C 4.375 -1.4375 4.769531 -1.578125 5.0625 -1.859375 C 5.363281 -2.148438 5.515625 -2.535156 5.515625 -3.015625 Z M 5.515625 -3.671875 "/></g></g></g><g fill="rgb(0%, 18.03894%, 26.669312%)" fill-opacity="1"><g transform="translate(166.70531, 270.93042)"><g><path d="M 8.4375 0 L 6.28125 0 L 6.28125 -4.625 C 6.28125 -5.195312 6.175781 -5.625 5.96875 -5.90625 C 5.769531 -6.195312 5.445312 -6.34375 5 -6.34375 C 4.394531 -6.34375 3.957031 -6.140625 3.6875 -5.734375 C 3.425781 -5.328125 3.296875 -4.65625 3.296875 -3.71875 L 3.296875 0 L 1.140625 0 L 1.140625 -7.921875 L 2.78125 -7.921875 L 3.078125 -6.90625 L 3.1875 -6.90625 C 3.425781 -7.289062 3.757812 -7.578125 4.1875 -7.765625 C 4.613281 -7.960938 5.09375 -8.0625 5.625 -8.0625 C 6.550781 -8.0625 7.25 -7.8125 7.71875 -7.3125 C 8.195312 -6.820312 8.4375 -6.101562 8.4375 -5.15625 Z M 8.4375 0 "/></g></g></g><g fill="rgb(0%, 18.03894%, 26.669312%)" fill-opacity="1"><g transform="translate(180.941354, 270.93042)"><g><path d="M 4.34375 0.140625 C 1.882812 0.140625 0.65625 -1.210938 0.65625 -3.921875 C 0.65625 -5.265625 0.988281 -6.289062 1.65625 -7 C 2.320312 -7.707031 3.28125 -8.0625 4.53125 -8.0625 C 5.445312 -8.0625 6.269531 -7.882812 7 -7.53125 L 6.359375 -5.859375 C 6.023438 -5.992188 5.710938 -6.101562 5.421875 -6.1875 C 5.128906 -6.28125 4.832031 -6.328125 4.53125 -6.328125 C 3.414062 -6.328125 2.859375 -5.523438 2.859375 -3.921875 C 2.859375 -2.378906 3.414062 -1.609375 4.53125 -1.609375 C 4.945312 -1.609375 5.332031 -1.660156 5.6875 -1.765625 C 6.039062 -1.878906 6.394531 -2.054688 6.75 -2.296875 L 6.75 -0.453125 C 6.40625 -0.222656 6.050781 -0.0664062 5.6875 0.015625 C 5.332031 0.0976562 4.882812 0.140625 4.34375 0.140625 Z M 4.34375 0.140625 "/></g></g></g><g fill="rgb(0%, 18.03894%, 26.669312%)" fill-opacity="1"><g transform="translate(193.104648, 270.93042)"><g><path d="M 1.046875 -9.96875 C 1.046875 -10.664062 1.4375 -11.015625 2.21875 -11.015625 C 3 -11.015625 3.390625 -10.664062 3.390625 -9.96875 C 3.390625 -9.625 3.289062 -9.359375 3.09375 -9.171875 C 2.894531 -8.992188 2.601562 -8.90625 2.21875 -8.90625 C 1.4375 -8.90625 1.046875 -9.257812 1.046875 -9.96875 Z M 3.296875 0 L 1.140625 0 L 1.140625 -7.921875 L 3.296875 -7.921875 Z M 3.296875 0 "/></g></g></g><g fill="rgb(0%, 18.03894%, 26.669312%)" fill-opacity="1"><g transform="translate(202.240137, 270.93042)"><g><path d="M 6.15625 0 L 5.734375 -1.078125 L 5.6875 -1.078125 C 5.320312 -0.617188 4.945312 -0.300781 4.5625 -0.125 C 4.175781 0.0507812 3.675781 0.140625 3.0625 0.140625 C 2.300781 0.140625 1.703125 -0.0703125 1.265625 -0.5 C 0.828125 -0.9375 0.609375 -1.554688 0.609375 -2.359375 C 0.609375 -3.203125 0.898438 -3.820312 1.484375 -4.21875 C 2.078125 -4.625 2.96875 -4.847656 4.15625 -4.890625 L 5.515625 -4.921875 L 5.515625 -5.28125 C 5.515625 -6.082031 5.109375 -6.484375 4.296875 -6.484375 C 3.660156 -6.484375 2.914062 -6.289062 2.0625 -5.90625 L 1.34375 -7.359375 C 2.257812 -7.835938 3.269531 -8.078125 4.375 -8.078125 C 5.4375 -8.078125 6.25 -7.84375 6.8125 -7.375 C 7.382812 -6.914062 7.671875 -6.21875 7.671875 -5.28125 L 7.671875 0 Z M 5.515625 -3.671875 L 4.6875 -3.640625 C 4.0625 -3.617188 3.59375 -3.503906 3.28125 -3.296875 C 2.976562 -3.085938 2.828125 -2.769531 2.828125 -2.34375 C 2.828125 -1.738281 3.175781 -1.4375 3.875 -1.4375 C 4.375 -1.4375 4.769531 -1.578125 5.0625 -1.859375 C 5.363281 -2.148438 5.515625 -2.535156 5.515625 -3.015625 Z M 5.515625 -3.671875 "/></g></g></g><g fill="rgb(0%, 18.03894%, 26.669312%)" fill-opacity="1"><g transform="translate(215.705092, 270.93042)"><g><path d="M 3.296875 0 L 1.140625 0 L 1.140625 -11.015625 L 3.296875 -11.015625 Z M 3.296875 0 "/></g></g></g><g fill="rgb(0%, 18.03894%, 26.669312%)" fill-opacity="1"><g transform="translate(224.840581, 270.93042)"><g/></g></g><g fill="rgb(0%, 18.03894%, 26.669312%)" fill-opacity="1"><g transform="translate(233.318153, 270.93042)"><g><path d="M 5.546875 -8.0625 C 5.835938 -8.0625 6.082031 -8.039062 6.28125 -8 L 6.125 -5.96875 C 5.945312 -6.019531 5.734375 -6.046875 5.484375 -6.046875 C 4.796875 -6.046875 4.257812 -5.867188 3.875 -5.515625 C 3.488281 -5.160156 3.296875 -4.664062 3.296875 -4.03125 L 3.296875 0 L 1.140625 0 L 1.140625 -7.921875 L 2.765625 -7.921875 L 3.09375 -6.578125 L 3.1875 -6.578125 C 3.4375 -7.023438 3.769531 -7.382812 4.1875 -7.65625 C 4.601562 -7.925781 5.054688 -8.0625 5.546875 -8.0625 Z M 5.546875 -8.0625 "/></g></g></g><g fill="rgb(0%, 18.03894%, 26.669312%)" fill-opacity="1"><g transform="translate(244.611293, 270.93042)"><g><path d="M 4.40625 -6.53125 C 3.945312 -6.53125 3.585938 -6.382812 3.328125 -6.09375 C 3.078125 -5.800781 2.929688 -5.390625 2.890625 -4.859375 L 5.921875 -4.859375 C 5.910156 -5.390625 5.769531 -5.800781 5.5 -6.09375 C 5.226562 -6.382812 4.863281 -6.53125 4.40625 -6.53125 Z M 4.71875 0.140625 C 3.4375 0.140625 2.4375 -0.207031 1.71875 -0.90625 C 1.007812 -1.613281 0.65625 -2.613281 0.65625 -3.90625 C 0.65625 -5.226562 0.984375 -6.25 1.640625 -6.96875 C 2.304688 -7.695312 3.222656 -8.0625 4.390625 -8.0625 C 5.515625 -8.0625 6.382812 -7.742188 7 -7.109375 C 7.625 -6.472656 7.9375 -5.59375 7.9375 -4.46875 L 7.9375 -3.421875 L 2.84375 -3.421875 C 2.863281 -2.804688 3.039062 -2.328125 3.375 -1.984375 C 3.71875 -1.640625 4.195312 -1.46875 4.8125 -1.46875 C 5.289062 -1.46875 5.738281 -1.515625 6.15625 -1.609375 C 6.582031 -1.710938 7.03125 -1.875 7.5 -2.09375 L 7.5 -0.421875 C 7.125 -0.234375 6.71875 -0.09375 6.28125 0 C 5.851562 0.09375 5.332031 0.140625 4.71875 0.140625 Z M 4.71875 0.140625 "/></g></g></g><g fill="rgb(0%, 18.03894%, 26.669312%)" fill-opacity="1"><g transform="translate(257.885234, 270.93042)"><g><path d="M 4.34375 0.140625 C 1.882812 0.140625 0.65625 -1.210938 0.65625 -3.921875 C 0.65625 -5.265625 0.988281 -6.289062 1.65625 -7 C 2.320312 -7.707031 3.28125 -8.0625 4.53125 -8.0625 C 5.445312 -8.0625 6.269531 -7.882812 7 -7.53125 L 6.359375 -5.859375 C 6.023438 -5.992188 5.710938 -6.101562 5.421875 -6.1875 C 5.128906 -6.28125 4.832031 -6.328125 4.53125 -6.328125 C 3.414062 -6.328125 2.859375 -5.523438 2.859375 -3.921875 C 2.859375 -2.378906 3.414062 -1.609375 4.53125 -1.609375 C 4.945312 -1.609375 5.332031 -1.660156 5.6875 -1.765625 C 6.039062 -1.878906 6.394531 -2.054688 6.75 -2.296875 L 6.75 -0.453125 C 6.40625 -0.222656 6.050781 -0.0664062 5.6875 0.015625 C 5.332031 0.0976562 4.882812 0.140625 4.34375 0.140625 Z M 4.34375 0.140625 "/></g></g></g><g fill="rgb(0%, 18.03894%, 26.669312%)" fill-opacity="1"><g transform="translate(270.048519, 270.93042)"><g><path d="M 2.859375 -3.96875 C 2.859375 -3.1875 2.984375 -2.59375 3.234375 -2.1875 C 3.492188 -1.789062 3.914062 -1.59375 4.5 -1.59375 C 5.070312 -1.59375 5.484375 -1.789062 5.734375 -2.1875 C 5.992188 -2.59375 6.125 -3.1875 6.125 -3.96875 C 6.125 -4.75 5.992188 -5.335938 5.734375 -5.734375 C 5.484375 -6.128906 5.066406 -6.328125 4.484375 -6.328125 C 3.910156 -6.328125 3.492188 -6.128906 3.234375 -5.734375 C 2.984375 -5.347656 2.859375 -4.757812 2.859375 -3.96875 Z M 8.328125 -3.96875 C 8.328125 -2.6875 7.984375 -1.679688 7.296875 -0.953125 C 6.617188 -0.222656 5.675781 0.140625 4.46875 0.140625 C 3.707031 0.140625 3.035156 -0.0234375 2.453125 -0.359375 C 1.878906 -0.691406 1.4375 -1.164062 1.125 -1.78125 C 0.8125 -2.40625 0.65625 -3.132812 0.65625 -3.96875 C 0.65625 -5.257812 0.988281 -6.265625 1.65625 -6.984375 C 2.332031 -7.703125 3.285156 -8.0625 4.515625 -8.0625 C 5.273438 -8.0625 5.941406 -7.894531 6.515625 -7.5625 C 7.097656 -7.238281 7.546875 -6.765625 7.859375 -6.140625 C 8.171875 -5.523438 8.328125 -4.800781 8.328125 -3.96875 Z M 8.328125 -3.96875 "/></g></g></g><g fill="rgb(0%, 18.03894%, 26.669312%)" fill-opacity="1"><g transform="translate(283.732769, 270.93042)"><g><path d="M 5.546875 -8.0625 C 5.835938 -8.0625 6.082031 -8.039062 6.28125 -8 L 6.125 -5.96875 C 5.945312 -6.019531 5.734375 -6.046875 5.484375 -6.046875 C 4.796875 -6.046875 4.257812 -5.867188 3.875 -5.515625 C 3.488281 -5.160156 3.296875 -4.664062 3.296875 -4.03125 L 3.296875 0 L 1.140625 0 L 1.140625 -7.921875 L 2.765625 -7.921875 L 3.09375 -6.578125 L 3.1875 -6.578125 C 3.4375 -7.023438 3.769531 -7.382812 4.1875 -7.65625 C 4.601562 -7.925781 5.054688 -8.0625 5.546875 -8.0625 Z M 5.546875 -8.0625 "/></g></g></g><g fill="rgb(0%, 18.03894%, 26.669312%)" fill-opacity="1"><g transform="translate(295.025908, 270.93042)"><g><path d="M 3.640625 0.140625 C 2.710938 0.140625 1.984375 -0.21875 1.453125 -0.9375 C 0.921875 -1.664062 0.65625 -2.664062 0.65625 -3.9375 C 0.65625 -5.238281 0.921875 -6.25 1.453125 -6.96875 C 1.992188 -7.695312 2.742188 -8.0625 3.703125 -8.0625 C 4.691406 -8.0625 5.445312 -7.675781 5.96875 -6.90625 L 6.046875 -6.90625 C 5.941406 -7.488281 5.890625 -8.015625 5.890625 -8.484375 L 5.890625 -11.015625 L 8.046875 -11.015625 L 8.046875 0 L 6.390625 0 L 5.96875 -1.03125 L 5.890625 -1.03125 C 5.390625 -0.25 4.640625 0.140625 3.640625 0.140625 Z M 4.390625 -1.578125 C 4.941406 -1.578125 5.347656 -1.738281 5.609375 -2.0625 C 5.867188 -2.382812 6.007812 -2.929688 6.03125 -3.703125 L 6.03125 -3.921875 C 6.03125 -4.773438 5.898438 -5.382812 5.640625 -5.75 C 5.378906 -6.125 4.953125 -6.3125 4.359375 -6.3125 C 3.878906 -6.3125 3.503906 -6.101562 3.234375 -5.6875 C 2.972656 -5.28125 2.84375 -4.691406 2.84375 -3.921875 C 2.84375 -3.140625 2.972656 -2.550781 3.234375 -2.15625 C 3.503906 -1.769531 3.890625 -1.578125 4.390625 -1.578125 Z M 4.390625 -1.578125 "/></g></g></g><g fill="rgb(0%, 18.03894%, 26.669312%)" fill-opacity="1"><g transform="translate(308.908238, 270.93042)"><g><path d="M 6.65625 -2.34375 C 6.65625 -1.539062 6.375 -0.925781 5.8125 -0.5 C 5.25 -0.0703125 4.40625 0.140625 3.28125 0.140625 C 2.707031 0.140625 2.21875 0.0976562 1.8125 0.015625 C 1.40625 -0.0546875 1.023438 -0.164062 0.671875 -0.3125 L 0.671875 -2.109375 C 1.066406 -1.910156 1.515625 -1.75 2.015625 -1.625 C 2.523438 -1.5 2.96875 -1.4375 3.34375 -1.4375 C 4.132812 -1.4375 4.53125 -1.660156 4.53125 -2.109375 C 4.53125 -2.285156 4.476562 -2.425781 4.375 -2.53125 C 4.269531 -2.632812 4.085938 -2.753906 3.828125 -2.890625 C 3.578125 -3.023438 3.238281 -3.179688 2.8125 -3.359375 C 2.195312 -3.617188 1.75 -3.851562 1.46875 -4.0625 C 1.1875 -4.28125 0.976562 -4.53125 0.84375 -4.8125 C 0.71875 -5.09375 0.65625 -5.441406 0.65625 -5.859375 C 0.65625 -6.554688 0.925781 -7.097656 1.46875 -7.484375 C 2.007812 -7.867188 2.78125 -8.0625 3.78125 -8.0625 C 4.738281 -8.0625 5.671875 -7.851562 6.578125 -7.4375 L 5.921875 -5.890625 C 5.523438 -6.054688 5.15625 -6.191406 4.8125 -6.296875 C 4.46875 -6.410156 4.113281 -6.46875 3.75 -6.46875 C 3.113281 -6.46875 2.796875 -6.296875 2.796875 -5.953125 C 2.796875 -5.753906 2.894531 -5.582031 3.09375 -5.4375 C 3.300781 -5.300781 3.753906 -5.09375 4.453125 -4.8125 C 5.066406 -4.5625 5.519531 -4.328125 5.8125 -4.109375 C 6.101562 -3.890625 6.316406 -3.640625 6.453125 -3.359375 C 6.585938 -3.078125 6.65625 -2.738281 6.65625 -2.34375 Z M 6.65625 -2.34375 "/></g></g></g></svg>